<svg xmlns="http://www.w3.org/2000/svg" xmlns:xlink="http://www.w3.org/1999/xlink"><defs><symbol viewBox="0 0 512 512" id="acn"><path d="M382 231q0-47-31.5-82T272 108q-2-3-4-5l-4-2q-2-2-2-3.5t4-5.5q2-3 5.5-5t3.5-2.5-3-2.5l-7-7-5-7-3-4-3 4-5 7-8 7q-3 2-3 2.5t3.5 2.5 6.5 5q4 4 4 5.5t-3 3.5l-3 2q-3 2-5 5-28 3-52 19-48-27-57-15-4 5 0 23t15 37q-15 28-15 59.5t15 59.5 42 45 58 20q-5 1-11.5 5t-6.5 8 7 8 7 7q0 9-13 17-3 2-9 4l-3 2q-2 2-2 4v5q0 3 3 3h23q3 0 3 2.5t-10 3.5l-19 1h-23q-4 0-13 8t-9 11 5 3h162q5 0 5-3t-9.5-11-13.5-8h-23v-15q0-2-1-4l-4-2q-6-2-9-4-12-8-12-17 0-3 6.5-7t6.5-8-6-8-12-5q27-2 51-15 19 10 36 13.5t22-.5q12-8-14-55 21-31 21-68zm-17 0q0 28-13 52l-1-2q-19-30-51-63-2-31-10-55-9-32-23-39 42 4 70 35t28 72zm-83-32q-22-22-46-41 9-13 20-13 19 0 26 54zm18 44q7 9 10 14 12 16 16 29 7 17 0 24t-37-5q9-27 11-62zm-50-120q-13 6-23 28-11-8-22-15 21-11 45-13zM148 231q0-22 9-42l4 5q15 19 28 35 11 13 12 11.5t-2-5.5l-3-4q-30-59-19-70t44 10q-4 15-6 30 4 0 6-7 2-10 6-19l27 19q-13 1-23 9t-13.5 21 1 25 15 19.5 24 7T281 268q-4 26-11 39-6 11-14 11-15 0-25-22-7-13-10-28-1-4-3-6l-3-1 3 18q4 21 11 35 9 21 22 26-43-3-73-34t-30-75zm119 108q9-4 16-21l17 13q-16 7-33 8z" /></symbol><symbol viewBox="0 0 512 512" id="arc"><path d="M276 257l114-114h7q5 3 10.5 2.5t11-4.5 7.5-12q2-4 2-14 1-12 4-15 5-6 14-11l2-1q0-1-3.5-1t-8.5 1.5-10.5 5.5-6.5 8v2q-1 7-5 11-6 6-14.5 5.5T386 115t-3-21l-9-2q-12-1-25-1-18 1-36 6-30 7-71 31-11 7-14 7-8 3-24 0-8-1-15-6l-3-1h-7.5l-.5 3 22 22q3 3 1 5.5t-5.5 2-7.5-2-4-.5l-4 4q-1 1 0 1l19 19q1 1 2 0l11-11q3-2 5 0l11 11q2 2 3-2 7-15 18-27t32-21 46-13q32-5 57 11v8L271 252q-1 0-1 .5v1.5l4 3q1 1 2 0zM88 448l1-2q5-9 11-14 3-3 15-4 9 0 14-2 8-2 12-7.5t4.5-11T143 397v-7l120-119 106 106 1 22 5 5 1-10q0-2 2-3v16l35 35-1-25 5-5 25 1-35-35h-16q1-2 3-2l10-1-5-5-22-1-236-236q-20-20-19-24t8-5L64 64l40 66 1-4q1-3 4-4 4 0 24 19l34 34-9 9q-1 0 .5 4t2 7.5-2 5.5-5.5-1l-22-22q-3-3-3 .5v7.5l1 3q5 7 6 15 3 16 0 24 0 3-7 14-24 41-31 71-5 18-6 36 0 13 1 25l2 10 8-1q10 0 14 4t4.5 12.5T115 414q-4 4-10 5h-3q-5 2-8.5 7t-5 10.5T87 445t1 3zm42-64q-16-25-11-57 4-25 13-46t21-32 27-18q4-1 2-3l-11-11q-2-2 0-5l17-16 69 69-119 119h-8z" /></symbol><symbol viewBox="0 0 512 512" id="ast"><path d="M266 168H142q-9 0-12.5 3t-2.5 17q-2 31 0 87 0 7 4.5 10.5t11 3.5 10.5-4 4-10q1-15 2-45v-1q0-20 5-25 3-4 15-3h1q25 2 49 1 13 0 18.5 5.5T253 234l2 91q0 21-1 27-2 7-8 8.5t-24 1.5l-37-1q-15 0-20-1t-6.5-5.5-.5-17.5v-17q0-1-2-3l-4-4q-63 40-81 109 27-28 48-45l3-3q6-7 9-7.5t.5 11T142 393q7 2 23 2h87q23-1 29.5-7t6.5-29l2-146q0-9-2-23-2-22-22-22zm85 11q-6-7-4-26v-9q0-18-2.5-24t-9-8-24.5-2l-101 1q-17 0-16 16 0 13 14 14l88 3q22 0 21 22v144q0 13 10 14 14 1 18-11 2-8 2-16v-9q1-20 0-30 1-25 6-37 6-14 20-24 10-6 30-17 25-14 38-23-25-5-49.5 1T351 179z" /></symbol><symbol viewBox="0 0 512 512" id="blm"><path d="M401 75q-9 6-46 33l-43 31q-26 19-37 10-5-6-6-15t2-16.5 13-15.5l3-3q2-2 1.5-8t-4-9.5T265 83t-31 16l-5 5q-28 21-46 37-39 36-73 85-28 23-39.5 56.5T67 351t33.5 60.5T161 445t69-3.5 56-39.5q50-35 84-73 16-17 37-45l5-6q12-15 17-31t1.5-19.5-10-4-8.5 2.5l-2 2q-9 10-16.5 13t-16.5 2.5-14-6.5q-10-11 10-37l31-42q27-38 33-47 8-13 10-46l1-1-18 2q-21 3-29 9zM189 408q-35 0-60-25t-25-60 25-60 60-25 60 25 25 60-25 60-60 25zm156-214q-14 21-18 36-4 18 6 30 8 9 34 7 12-1 23-4-5 8-12 16l-4 5q-13 17-24 28-14 14-38 33 6-30-3.5-59.5t-31-51-51-31T167 200q19-24 34-38 10-11 27-24l6-4q7-7 15-13l-2 12q-3 14-2 24 1 15 7 21 12 11 30 6 15-3 36-17t102-75l-1 1q-61 82-74 101z" /></symbol><symbol viewBox="0 0 512 512" id="blu"><path d="M444 154q-3 0-17 3-1-17-15-33t-31-18q-10-2-19 3t-13 12 0 11q1 1 8 2t10 3q7 3 9 10 4 10 1 18t-10 10l-50 15-15 6q-13 4-20 6-12 3-26 3t-26-3q-7-2-19-6l-15-6-16-5Q75 153 68 154q-20 2-7 36v2q12 38 31 68 26 42 54 46 21 3 40-3 12-3 31-13 12-7 19-9 10-4 20-5 14 1 37 13-41 76-48 91l-3 7q-4 8-5 12-1 5 1 7 5 3 17-10l2-2q9-10 34-40 33-38 43-48 16 2 32 0 28-4 54-46 19-30 31-68v-1q13-35-7-37zM149 267q-17-2-29-17-10-12-16-29-5-14-4.5-21t29.5 2q25 8 56 21.5t35.5 18T214 253t-30 11.5-35 2.5zm214 0q-16 2-35-2.5T298 253t-6.5-11.5 35.5-18 56-21.5q29-9 29.5-2t-4.5 21q-6 17-16 29-12 15-29 17z" /></symbol><symbol viewBox="0 0 512 512" id="brd"><path d="M189 334V175q0-7-12-9l-6 2q-6 3-6 7v159q0 4 6 7l6 2 6-2q6-3 6-7zm62 0V175q0-7-12-9l-6 2q-6 3-6 7v159q0 4 6 7l6 2 6-2q6-3 6-7zm63 0V175q0-7-12-9l-6 2q-6 3-6 7v159q0 4 6 7l6 2 6-2q6-3 6-7zm61-275q-9 0-17 6.5T350 77t-3 6-9 1H153q-19 0-32 14-5 5-8 11.5t-3 12.5q0 10 3.5 15.5T127 143q7 0 13-3 3-2 8-7 7-7 11-7h168q9 0 16 5 9 6 9 18v177q0 10-13 28-15 20-35 32-25 16-52 16-59 0-100-31l-1-1q-4-3-9-4t-7.5 1.5 0 12T142 394q12 13 35 27 37 22 75 22 28 0 61.5-18.5T370 380q24-28 24-52V156q0-6 4-15t4-15V84q0-7-9.5-16T375 59z" /></symbol><symbol class="MuiSvgIcon-root MuiSvgIcon-fontSizeMedium MuiBox-root css-1om0hkc" viewBox="0 0 24 24" aria-hidden="true" id="clock"><path d="M11.99 2C6.47 2 2 6.48 2 12s4.47 10 9.99 10C17.52 22 22 17.52 22 12S17.52 2 11.99 2zm3.3 14.71L11 12.41V7h2v4.59l3.71 3.71-1.42 1.41z" /></symbol><symbol viewBox="0 0 512 512" id="cnj"><path d="M127 282q0-6-4-10t-9.5-4-9.5 4-4 10.5 4 10.5 9.5 4 9.5-4 4-11zm53-112q7 0 11.5-5t4.5-12.5-4.5-12.5-11-5-11.5 5-5 12.5 5 12.5 11 5zm94-39q6 0 10.5-4.5T289 115t-4.5-11.5T274 99t-10.5 4.5T259 115t4.5 11.5T274 131zm103 22q6 0 10-4t4-10.5-4-10.5-9.5-4-9.5 4-4 10.5 4 10.5 9 4zm63-20q-4 4-7 8-8 7-12 10-2 1-6 2l-3 1-4 3q-4 3-7 3-11 4-28 4l-12-1 2-3 4-3-1-2q-1-1-4 1l-6 4q-3-3-4-6-5-10-4-24 1-20 7-30l11-17q-3 0-6 1t-10.5 8.5T339 105q-7 11-7 20 0 4 2.5 10.5T340 146q5 9 12 16-10 10-14 15t-9 18v2q-2 3-5 4l-4 2q-4 1-5 2l-8 7q-4-5-5-11-2-8-8-23l-8-17 5-6q6-6 9-11 4-6 8.5-16.5T314 111q2-12-5-26-4-8-9.5-14T287 58.5t-9-7.5-3 0l2 2q9 11 11 16.5t2 15.5l-1 9 2 3q3 3 4 7 2 10-1 26-2 11-6 19l-4 6-4-4-1-7q-3-5-4.5-4.5t-1 2.5.5 4-1 2q-3-5-7-9l-4-5q-15-17-25-25t-20.5-13-17.5-5-11 2.5-10 7.5l-9 9q-1 1-1 4l3-2q4-2 9-2 8 0 22 10l14 10 9-1q9-1 12 0 11 4 16 8 3 3 8 9t6 7q1 4 2 4l1 1q5 3 7 6 5 5 9 18 6 16 6 29 0 4-1.5 12t-1.5 13q0 15-12 34-2 4-2 5l1 2q5 8 6 13l3 6q2 4 1.5 6t-5.5 6q-5 3-11 6l1 2q2 2 5 3l3 1q6 2 10 5l5 6q3 4 3 5-8-6-17-10-5-2-12-4l-10-3q-19-8-35-19-12-8-20-19l-10-4-3-2q-5-3-5.5-5t-.5-8l1-5-4-14q-4-14-5-19-1-8-1-16l6-7q7-8 12-10 12-5 21-5l15 2q1 0 7.5-5t10.5-10l14-17 1-3-6 3q-6 3-13 3-4 0-12-1l-4-1q-2 0-9.5 3t-16.5 9q-11 8-19 18l-6 9q-1-2-2-5 0-5 2-10 0-2-1.5-2.5t-4 2.5-3.5 6.5-1 6.5h-2q-2-1-4-4-6-9-8-13-4-10-4-21 0-8 3-14l3-5q-3-8-2-17 0-6 1-10l1-2q0-4 1.5-7.5t3-6T160 89l-6 5q-7 7-14 16-16 19-16 36 0 18 18 36l23 23q-1 6-.5 12.5T167 232q4 13 4 27 0 9-1.5 17.5t-2 10.5-.5 4h4q5 0 7 1l4 2 4 2 17 19q13 15 25 23h-5q-5-1-10.5-4t-8.5-6l-6 1q-6 1-9 1-5 0-13-3-10-3-17-9-15-12-17-21l1-11q1-12-1-30-1-7-6.5-22t-10-21.5-13-11T96 197q-16 0-24 6 14 2 24 13 8 9 17 27 5 1 9 4 11 9 15 25 0 4 1 11v6q0 2-2 1l-2-1q-2-2-3.5-1.5t-.5 2.5l1 3q2 5 0 6-9 0-16 4.5T97.5 320 84 340q-6 13-4 28 2 10 13 25l1-9q2-10 4-14 3-6 12-20v-27q1-2 4.5-7.5t7.5-8.5q5-4 12-5l16 19q12 13 20.5 18t24.5 14q7 3 14 10l5 6 6-4q5-4 9-5 11-4 24-4 9 0 18 4 6 4 16 11l9 8q9 10 14 18 13 23 14 39 1 10 1 19l1 3 1 3q3-3 7-6.5t9-6.5q8-10 17-18 15-12 26.5-14t20.5 0q4 1 6.5 4t3 6-.5 5v2q4-1 5.5-4.5t0-7.5-3.5-7h-1q-7-8-16.5-9.5T383 401l-18-6q-5-2-9-4-2-1-8-9l-21-24q-5-6-6.5-11t-1-11 2.5-9q3-7 19-8 0-5-4-7-3-2-8.5-3t-7.5-3q-8-4-14-13-7-11-7-23t8-30.5 14.5-22.5 17.5-4l3-1-2-4q-2-6-1-11.5t4-11.5 6.5-9.5 8.5-7.5q15 5 26 6 15 2 25 0t18-10q3-3 7-11t5-14v-6zm-78 110q-7 0-11.5 5t-4.5 12 4.5 12 11 5 11-5 4.5-12-4.5-12-11.5-5h1zm0 39q-6 0-10.5 4.5T347 298t4.5 11.5T362 314t10.5-4.5T377 298t-4.5-11.5T362 282zm-32-18q-8 0-13 5.5t-5 13 5 13 12.5 5.5 12.5-5.5 5-13-5-13-12-5.5z" /></symbol><symbol viewBox="0 0 501 512" id="default"><path d="M464 326q-3-6-3.5-15.5T459 300t-3 7q-2 11-7.5 19.5T436 338q-4 2-10 2t-8-.5-6-3.5q-5-5-6-5t-3.5-5.5-2.5-9.5-2.5-8-2.5-8.5 2-7.5 2.5-6.5 1.5-4.5 3.5-1 3-1.5l2.5-7.5q1-9 4-12t2.5-7-1.5-5-3-1q-6 0-7-5t4-7 6.5-6 1-4.5L414 221q-11-8-13-17-3-12 3-21.5t18-11.5q6-1 7-2t1-3.5-1-3.5-4-1.5-3.5-5.5 2.5-6 8.5-5.5 9.5-5 4.5-1.5 0-4 2.5-8q6-12-4-7-4 1-4 3t-3.5 5-5 3.5-7 0-7 1-.5 5 .5 7-2.5 3.5-3 3.5 0 5.5q3 5-5 5-4 0-5.5 2t-3 1.5-5-4-5-4-8.5-.5q-10 1-11.5-.5T365 153t-2 2-1.5 6.5-5 6-7 1.5-8-3.5-3.5-7-3-7-1.5-6 1-5-3.5-4-4.5-.5 0 4-.5 6-4.5 3-5.5 2q-7 5-13 0-4-2-10-2t-7.5-.5-4.5-4-3.5-5.5-.5-10 .5-11 2.5-6q6-10 16.5-12.5T318 102q2 1 3.5 1t5.5-1.5 9.5-2 8.5.5 6-1.5 10.5-2T373 94t7-10.5T390 68q18-18 13-35-2-6-2.5-7t-2.5 3.5-7.5 10T381 47q-10 5-18 1.5T344 55q-7 5-11.5 6.5t-11 1-10-3-5-2.5-6 4.5T295 70q-5 11-14 16t-20 6.5-18.5-1.5-10.5-2.5-7.5 5-4.5 7.5-2.5 10-6 11-5.5 8.5-5 6.5-10 3q-17 1-25-9-4-6-2.5-6.5t3.5-4.5 6.5-5.5 4.5-5.5-1.5-5-5.5-.5-6 0-4.5-3-3.5-4-1-6-2-7.5l-3-3-2 3q-1 2-4.5 4t-4.5 6.5-7 12-6 10-4 5.5q-6 5-15 1-4-1-1 10 1 5 5 6t6.5 6.5 2.5 8-1 5.5 0 5 4.5 4 3.5 3.5-3.5 5-8.5 3.5-8.5-2.5-4-2.5-2 5-4.5 8q-9 9-13.5 10.5t-11 0-11-4.5-5.5-3-5-3q-8-7-4 5 2 7 1 11-3 10-1 11t7 0q10-3 15 5 4 6 1.5 12T60 241q-5 3-6 5t0 7q0 3 1 4t4 1q6 1 9 7.5t0 10.5q-1 2 1 5 6 9 4 28-1 9-4 14.5t-8 9.5l-10 7q-4 3-8 3.5t-7-1-3 .5q0 6 5 14.5T51 374q5 5 7 6t5.5 1 9.5 3.5 8 7.5q5 8 6 26 0 10-1.5 13t-7.5 6-6 4 11.5 3.5 14 2T110 448q21 3 36 17 11 10 12 20 1 5 2 6t5 2 8.5-2 13-6 14-2.5T212 487t12 5.5 10.5.5 7.5-8q5-10 14-13.5t20 .5q13 4 18 13 3 4 9.5 7.5T317 496h7l1-7q0-8 2-11.5t9.5-11.5 13.5-12q12-9 22-9 6 0 8-1 4-2 0-16-4-12 1-23 3-5 9.5-9t12-4.5 8.5-3 5-8.5q3-11 15-17 7-3 12-8.5t10-7.5 9.5-6 4.5-6.5-3-8.5zM235 433q-34 0-62-16.5t-45-45-17-62 17-62 45-45.5 62-17 62.5 17 45 45.5 16.5 62-16.5 62-45 45T235 433z" /></symbol><symbol viewBox="0 0 512 512" id="dnc"><path d="M410 217q-2 27-14 47-9 13-40 47l-9 10q-46 49-63 80-4 6-9.5 19.5T266 439q-5 8-11 8t-11-8q-3-5-8.5-18.5T226 401q-17-31-63-80l-9-10q-31-34-40-47-12-20-14-47t11-46q12-17 31-22 25-6 49-22 38-26 64-73 26 47 64 73 23 16 49 22 19 5 31 22 13 19 11 46zm-33-8q-3-23-20-31-14-7-32-1-16 5-19 23-2 10 0 31 1 11 1 15-1 6-4 6-11 3-24-18-12-18-15-33 0-3 1-9.5t4-14.5 13.5-15.5T298 153q-8-2-43-41v1q-35 38-43 40 5 1 15.5 8.5T241 177t4 14.5 1 9.5q-3 15-15 33-13 21-24 18-3 0-4-6 0-4 1-15 2-21 0-31-3-18-19-23-18-6-32 1-17 8-20 31-2 20 11 41 8 12 28 35l8 9q17 18 45 43 14 13 19 19 9 8 11 16 2-8 11-16 5-6 19-19 28-24 45-43l8-9q20-23 28-35 13-21 11-41z" /></symbol><symbol viewBox="0 0 512 512" id="drg"><path d="M370 172h-19l-8 10q-10 10-15 10t-8.5-7.5T316 170V88q0-10-7-23-3-7-6-11l-7 12q-7 13-7 22v88l-2 3q-4 4-10 8-10 7-21 9-11-2-21-9-6-4-10-8l-2-3V88q0-14-14-34l-6 11q-7 13-7 23v82q0 7-3.5 14.5T184 192q-8 0-23-20h-19q-3 0-5.5 2t-2.5 4.5 37 84.5q27 60 30 67 4 9 21 62l10 29q2 7 7 12t8 5h18q3 0 8-5t7-12l10-29q17-53 21-62 3-7 30-67 37-82 37-84.5t-2.5-4.5-5.5-2zm-47 72q-2 7-11.5 17.5T293 278l-5 3q-6 4-9.5 6.5t-7 7-3.5 6.5 6 10q9 10 9 13v28q0 3-9 15-5 7-6 9-6 13-6 22 0 3-3 5l-3 1-3-1q-3-2-3-5 0-9-6-22-1-2-6-9-9-12-9-15v-28q0-3 9-13 6-8 6-10t-3.5-6.5-7-7-9.5-6.5l-5-3q-9-6-18.5-16.5T189 244l-5-20 3-4q4-6 8-9 9-5 15-5 2 0 7 6 11 12 17 15 15 6 22 5h5q7-1 17-5 6-3 17-15 5-6 7-6 6 0 13.5 5t12.5 13z" /></symbol><symbol viewBox="0 0 512 512" id="drk"><path d="M165 270q38-12 53-28t13-46q-18 5-57 22-51 22-77 27 11-12 29-24 11-8 34-22 33-21 46-32-23-16-36-27-19-15-30-31 20-2 41 6 12 4 35 16l15 8q5-10 8-24 2-8 4-26 5-33 12-48 8 18 15 57 4 27 8 40 10-4 28-11 20-9 31-12 17-6 34-7-11 17-29 32-14 12-38 26 13 11 47 33 47 29 64 46-20-3-47-14-16-6-48-19.5T275 193q-3 28 16 48.5t56 29.5q-7 9-23 28-19 23-27 34-13 20-16 37l-2 4q-14 65-26 97l-21-100q-5-20-22-44-9-15-32-42zm90-25q-9 5-20 17l-7 8q-8 7-2 16l26 40q21-24 26.5-36.5T278 267q-4-6-23-22z" /></symbol><symbol viewBox="0 0 512 512" id="gla"><path d="M435 418q-2-1-7-4l-1-1q-1-1-2-1l-6 6q-2 2-3.5.5t-.5-3.5l6-6-48-53-10 10q-2 2-4 0t0-4l38-38-11-12-20 20q-3 3-14 0h-2l-1 1-7 7h-1q-1 0-2.5-1t-.5-3l5-5-7-7q-2-7-1.5-14t2.5-14q-4 0-10-3-14-6-28-19-20-18-53-50-37-37-56.5-58.5T148 118l-17-22-67-32 32 67 22 17q26 22 47.5 41.5T224 246q32 32 50 53 13 14 19 28 3 6 3 10 7-2 14-2.5t14 1.5l11 11-3 3v2q3 11 0 14l-20 20 12 11 27-28 57 51 4 5q0 1 1 2v1q4 5 5.5 8t.5 11l3 1h8q7-1 12-6t6-12-1-11h-5q-5 0-7-1zm-88-229q34-30 69-58l32-67-67 32-17 22q-22 26-41 47-22 25-63 65l22 22q40-41 65-63zm-134 85q-10 10-20 15-7 4-13 6l-5 1q2 7 2.5 14t-1.5 14l-7 7 5 5q1 2-.5 3t-2.5 1l-8-7-1-1h-2q-11 3-14 0l-20-20-11 12 38 38q2 2 0 4t-4 0l-10-10q-44 49-48 53l6 6q1 2-.5 3.5T93 418l-6-6q-1 0-2 1h-1q-5 4-8 5.5t-11 .5l-1 3v8q1 7 6 12t12 6 11-1v-5q0-5 1-7t4-7l1-1q1-1 1-2l4-5 57-51 27 28 12-11-20-20q-3-3 0-14 0-2-1-3l-2-2 11-11q7-2 14.5-1.5T216 337l1-5q2-6 6-13 5-10 15-21l14-15-23-23z" /></symbol><symbol viewBox="0 0 512 512" id="gnb"><path d="M420 114q-17 24-35 48l-3 6q-7 9-21 24L187 364q24 14 51.5 16t53-8.5 42.5-32 23-48.5q2-12 8.5-16.5t13-4 12.5 6 5 15.5q-7 46-35 77l2 9q4 13 4 19 1 10-4.5 14.5T349 413q-5-2-14-8-12-7-14-5-39 22-84 19t-81-30l-48 34q-7 4-10.5 5t-5.5 0l-3-3q-1-2 0-5.5t5-10.5l35-48 4-6q6-9 21-24l156-155q-25-18-56.5-19.5t-59 13-43.5 41-16 58.5q0 9-4 15.5t-13 7.5-15.5-6-6.5-17q0-51 30.5-91.5T205 123q3 0 6.5-12.5T217 93q5-9 11-10t13 8q4 5 10 16t8 11q44 4 79 31 15-14 19-15l50-34q9-6 14-6 2 0 3 2l1 2q1 2 0 5.5t-5 10.5z" /></symbol><symbol viewBox="0 0 512 512" id="lnc"><path d="M384 322q-1 0-2 1l-32 33q-2 1-3.5 1t-2.5-.5 2-3.5l30-31q1 0 1-1-8-2-15-5-13-5-23-15h-1l-11 11q-2 2-3.5 2t-2.5-.5 2-3.5l11-12 1-1q-6-7-7-13l-39-27q-43-31-64-50L103 99v-7L68 65q-2-2-4-1v1q0 2 1 3l27 35h7l108 122q30 33 77 103l6 2q7 4 13 11 8 8 13 21 8 17 8 43v4q2 2 4 0l27-27q3-3 5 0l5 4q2 3 12 0l33 33q-1 4 0 8 0 2 2 5l1 2q0 2 1.5 3t5.5 1l4-1q6-1 8 1l12 9q2 2 4 1v-1q0-2-1-3l-9-12q-2-2-1-8l1-4q0-4-1-5.5t-4-1.5l-14 14v-2q0-3 4-7l5-5q1-1 .5-2t-1.5-1q-4-1-8 0l-33-32 1-6q1-6-1-7l-3-3q-1-1-2 0l-7 7q-2 2-4.5 3t-3.5.5 1-2.5l42-42q2-2 0-4h-4q-12 0-21-2z" /></symbol><symbol viewBox="0 0 512 512" id="mch"><path d="M387 245q-7-7-16-13L158 81q-9-7-15-8-14-5-23 11-7 12 5 21l183 131 9 6q17 10 24 19-5 5-10 8-28 14-31.5 27.5T313 335q8 10 16 19 13 13-4 27-8 7-11 6t-11-14q-12-18-17-28-8-16-23-8-11 6-3 22l18 36q12 20 23 34 10 11 16 11t15-11q7-9 19-27l6-8q11-16 13.5-23t-.5-14q-3-5-15-20l-16-17q-10-11-11.5-15t5.5-8q5-3 27-11l2-1q6-2 17-8l2-1q14-7 14-14t-8-17zm-105 30q3-13-.5-22T267 236q-20-13-61-42l-56-39q-5-4-11-4t-7.5 5.5 0 13 5 11.5 7.5 7l6 3q60 42 91 63l1 1q9 7 13 11 6 7 4 16-1 5-4.5 11t-8.5 7-10-2.5-4-8.5q1-14-4-20t-18-10q-4 10-5 23 0 7 1 22v5q1 12 7 15.5t18 1.5q25-3 35-13t16-38z" /></symbol><symbol viewBox="0 0 512 512" id="mnk"><path d="M269 120q19-16 28-38 5-10 5-18h-9q-11 2-22 6-16 6-30 17L98 208q-20 17-29 38-4 11-5 18h9q11-1 22-6 16-6 30-17l72-61zm73 87q13-12 22-26 6-11 9-21l2-9h-9q-11 1-22 6-16 6-30 17L170 295q-13 12-22 26-6 11-9 21l-2 9h9q11-1 22-6 16-6 30-17l72-61zm45 54l-72 61-72 60q-19 16-28 38-5 10-5 18h9q11-1 22-6 16-6 30-17l143-121q14-12 23-26 6-11 9-21l2-9h-9q-11 1-22 6-16 6-30 17z" /></symbol><symbol viewBox="0 0 512 512" id="mrd"><path d="M383 351q-33-34-74-83-30-35-44-53-25-32-42-60l-5-8q-2-2-11 4l-2 1q-3 1-4 0t1-2l9-7q11-8 11-10 1-4-6.5-15.5T204 106q-2 0-10 4l-14 7q-3 1-3.5-.5t6-6 7-6.5-4-10-7-9-13.5 5.5-11 9.5 14 22q-15 6-27 7.5t-31 .5q2 14 11 29 7 13 20 26l1 1q-1 1-8.5-5T119 165q-13-17-18-36-13-2-26-11l-11-9 1 12q2 14 8 30 9 21 24 41 17 23 43 41 13 9 22 13l-1-11q0-13 1-25 3-16 10-28 8-14 21-25 23 29 63 80l23 30q43 55 55 70 13 18 26 40 16 26 20 37v1q4 11 6 12t9-6 11-15q10-20 8-28 0-1-8-8-14-10-23-19zM240 227q-1-2-3 0-58 73-108 124-9 9-23 19-8 7-8 8-2 8 8 28 4 8 11 15t9 6 6-12.5 20-36.5q13-23 26-40.5t59-75.5l14-18q2-1 0-3zm208-118q-6 5-11 9-13 9-26 11-5 19-18 36-7 10-14.5 16t-8.5 5l1-1q13-13 20-26 9-15 11-29-19 1-31-.5t-27-7.5q14-19 14-22t-11-9.5-14-5.5-7 9-3.5 10 7 6.5 6 5.5-3.5 1l-14-7q-8-4-10-4-4 0-11.5 11.5T290 133q0 2 11 10l9 7q2 1 1 2t-4 0l-2-1q-9-6-11-4l-8 12q-15 24-25 36-1 2 0 4l12 13q1 2 3 0 9-12 43-55 13 11 22 26.5t10 40.5q0 13-1 22l10-6q14-7 26-17 17-14 29-31 15-20 24-41 6-16 8-30z" /></symbol><symbol viewBox="0 0 512 512" id="nin"><path d="M299 357q3-2 7-5 5-5 9-10 8-9 14-20 18-31 18-66 1-47-31-97-21-33-54-55-26-16-58-25-22-6-46-7l-19-1 13 3q16 4 32 11 23 10 43 26 25 21 45 48l-9-3-11-3q-15-3-31-2-21 1-41 8-25 9-46 28-25 22-43 57t-20 74q-2 30 7 62 6 23 16 44l10 17-4-12q-5-16-7-34-2-25 2-50 4-32 19-63l1 9q2 10 7 19l3 9q17 33 47 52 42 28 105 25 51-2 94-31 30-20 53-51 12-16 17-27l-8 9q-11 12-26 23-20 14-44 24-30 11-64 14zm-71-18q-30 0-51-21.5T156 266t21-51 51-21 51.5 21 21.5 51-21.5 51.5T228 339z" /></symbol><symbol viewBox="0 0 512 512" id="pld"><path d="M388 71q-4 0-16.5 16T355 103h-71q-2 0-10-17l-3-7q-5-9-10-13l-5-2-5 2q-5 4-10 13l-3 7q-8 17-10 17h-71q-4 0-16.5-16T124 71q-7 0-13.5 7T104 96v132q0 49 17 90 16 39 45 67 24 23 59 45 17 11 31 18 13-7 31-18 35-22 59-45 29-28 45-67 17-41 17-90V96q0-11-6.5-18T388 71zM240 393q-5-3-11-6-13-9-25-19-17-15-30-31-16-20-24-48-6-22-6-41V136h96v257zm98-56q-18 23-44 42-13 9-22 14V136h96v112q0 19-6 41-8 28-24 48z" /></symbol><symbol viewBox="0 0 512 512" id="pug"><path d="M435 332q-5-5-11-9-2-2-4 0l-26 26q-2 2-5 1 0-2 1-5l10-10q12-13 14-16t0-5q-11-10-13.5-11t-4.5-1q2 8-3 14-3 4-22 22l-2 2q-11 11-9 30v3.5l-2-.5q-6-1-11.5-1t-12.5 2l-6 3 4-4q6-5 11-6h8l4 1q-2-7 0-14.5t8-14.5l18-19q2-2 1-6l-1-2q-1-2 0-5t2-2q3 3 5.5 1t-1.5-6l-52-45q-2-2-3-.5t-.5 3-1.5 2.5-5 .5-5-3.5q-5-5-12.5-5t-13.5 6q-8 9-5 30 1 10 4 19-10-4-19.5-6.5T255 298q7-4 16-4 3 0 8 1l4 1q-2-9-2-18-1-17 12-28 8-6 20-5 4 0 9 3l5 4 1-4q1-3 .5-5t-3.5-5l-3-5q-2-3-2-9v-4q-3-2-15 0h-2q-2 0-4-2l-2-2q-4-3-5-2t-1 3l-1 3q0 1-4 5l-11 9q-12 11-13.5 18t.5 21l-8-1q-8-2-13.5-2t-11.5 2l4-3q4-3 7.5-4t8.5 0h5v-9q0-11 6-19 4-4 14-12l4-4q5-5 4-12 0-2-3-8l-2-5q-1-3-2-16 0-9-1-10l-11-24q-7-16-15-20.5t-27-4.5h-3q-5 0-19-3h-1q-13-3-20-1t-20 20l-2 3q-2 2-6.5 5t-5.5 5-1 6 2.5 6 6.5 3l3 1-3 1q-4 0-8-1.5t-7-6.5q-1-2 .5-8.5t2.5-7.5l5-4q9-8 12-12l7-10q4-5 5-6 5-4 9-4t7 2h1q6 3 10 3t9.5-.5T216 113l3 1q6 2 10 2.5t5.5-.5-.5-5-5-6q-6-4-25-26l-1-1q-13-14-32-14-7 0-14 5-4 3-9 9.5t-8 7.5l-2 1q-13 1-21 9-7 6-8 21v2q0 1-6 7l-8 8q-3 4-5 9l-1 3q-3 11-1 23-2 1-4 3-10 11-10 29 1 11 6 18 4 5 14 13l4 4q10 8 27 15 13-1 18.5-4t9.5-11l1-3 2-1q11-4 14-6 9-8 9-18l6-2q7-3 9-8t3-12l1-4q2-6 4-13l-7-7q-4-3-9-4l3-3 2-4 5 4q6 4 11 5 7 1 15 1 4-1 4 1t-.5 3.5-1.5 1.5h-8q-1 1-3 4.5t-3 6.5l-2 5q-5 14-5 19-4 20 3 32 5 9 14 16 0 1-2.5-.5T211 246q-6-5-10-10.5t-5-12-1-12.5q-3-2-11 6-2 2-5.5 8l-3.5 6-4 1q-10 3-14 6-2 1-6 6t-5 6q-4 3-17 3 1 6 4.5 10.5T144 274t12.5 7.5 15 2T189 287q4 2 8 7 2 2 3 2l5-2q6-4 8-3t0 3l-9 11q-2 4 1 7l1 2q2 1 2 2l-1 2q-2 12 1 15h3q6 1 9 2l5 4q4 2 5 2 4 1 6-1l56 64q2 2 1.5 6.5t.5 6.5q7 7 26 29 3 3 7 1l-1-2q0-4 4-8l28-27q9-9 8-26 0-3 .5-3.5t4.5-.5q16 0 25-9l31-30q5-6 10-4l1-2z" /></symbol><symbol viewBox="0 0 512 512" id="rdm"><path d="M355 284q-3-1-6-3-7-5-18-5-27 0-46 20.5T266 345t16.5 45.5T327 412q6 1 10.5 6.5T340 432q-2 15-30 7-35-6-56-31t-21-66q0-24 11.5-46t31.5-36l1-1q13-7 15-26 3-67 11-141l1-13q2-18 3-23 1-8 5-8 3 0 5 8 1 5 2 22l2 14q5 54 9 116 2 17 6 30t8.5 15.5T359 262q17 9 21.5 9t1.5 5-11 8-16 0zm-186-45q3-2 23 12l10 7q7 5 15 7l3 1q6 0 11.5 3.5t2.5 6.5q-17 20-22 52-7 50 32 96l1 1q0 7-11.5 1T217 415t-11-14q-4-3-9-1l-10 7q-20 15-23 12-2-2 12-22l10-15q3-6 2-15-2-6-3-12-2-11-8-13l-18-4q-15-2-21-4-9-3-9-6t9-6q6-1 21-4l19-4q4-1 7.5-4.5t5.5-8 4-9.5l1-3q-1-7-7-17l-8-10q-14-20-12-23zm123 105q0-14 10-23.5t23.5-9.5 23 9.5 9.5 23-9.5 23.5-23 10-23.5-10-10-23z" /></symbol><symbol viewBox="0 0 512 512" id="rog"><path d="M108 250l-16 35-16-7q0-6 1-12 2-12 9-21 4-5 9-9l16 7zm8 34q-4-2-10-3h-4l12-27 3 2q5 4 9 5.5t15.5 5T158 272q20 9 37 21l-9 21q-20-5-40-14-6-2-16-8t-14-8zm135 80q4 1 14 3 19 3 30.5 7.5T332 392q21 12 32 17 33 14 69 15 18 1 30-1l-9-11q-11-14-25-25-20-17-44-27-10-5-33-13-27-9-38-14.5T287 315l-11-8-31-20-30 67zm-12-98l-44 98-11-5 15-34-5-3q-2-1-3-3l12-26q2-1 4 0l5 2 16-34zm177-32l-12 28-3 7 16 7q5-4 9-9 7-9 9-21 1-6 1-12l-16-7zm-29 17q3 1 8 5l3 2 12-27h-4q-6-1-10-3t-14-8-16-8q-19-9-40-14l-9 21q18 12 37 21 5 2 16.5 5.5T387 251zm-151-46q-4-2-11-8-16-12-27-17.5T160 165q-23-8-33-13-33-15-59-40-12-13-19-23l14-1q18-1 36 2 25 3 49 13 11 5 32 17 25 13 36.5 17.5T248 145l13 3q21 6 36 10l-29 67zm81-57l-44 98 11 5 16-34 5 2q2 1 4 0l12-26q-1-2-3-3l-5-3 15-34z" /></symbol><symbol viewBox="0 0 512 512" id="sam"><path d="M396 378q-32 38-78 52.5t-93 5.5q-19-3-33-10-27-12-13-26 7 4 54 7 33 3 65-9t57-37q15-16 18-37 3-23-11-43-9-12-23.5-17t-25.5-1q-13 5-15 20l-1-1 6 42q3 13-2 18-4 2-13 2h-63q-9 0-12-2-5-5-3-18l3-17q1-17-2-25t-10-10q-4-2-16-2-22-1-36-8-4-3-13-11-13-12-18-11-8 2-10 30 3 41 25 69 7 5 8 9t0 8v3q-1 5-5 7-8 4-23-12-26-28-36-68t-1.5-80.5T110 135q40-45 98.5-58T321 87q13 5 20.5 12t5 10.5T333 113t-22-4q-36-12-76-3-14 3-33 19-7 6-10 8-8 6-21 11-10 4-15 7l2-1q-4 3-7 6l-6 6q3-3-2 3-9 13-6 27t15 25q28 21 50.5 16.5T231 206q13-50 26-57 14 8 28 67l1 4q1 6 3 9t6 3l14-3q8-2 13-2.5t15 .5q23 2 48 21l1 1q12 14 15-11v1q-2-26-11-58-4-16-4-21 0-9 6-13 7-3 20 19 32 50 27.5 109T396 378zm-127-83q-6-69-12-76-7 7-13 76-1 12 7 12h11q8 0 7-12z" /></symbol><symbol viewBox="0 0 512 512" id="sch"><path d="M430 227q-4-6-8-10-18-5-25 9-3 7-3.5 16.5t.5 13.5q7 15 7 24 0 17-12.5 29.5T359 322t-29-12.5-12-29.5q0-26 16-44 10-11 36-27l18-12-2-1q-19-16-39-22-33-11-91-11t-91 11q-20 7-39 22l-2 1 18 12q26 16 36 27 16 18 16 44 0 11-5.5 20.5t-15 15.5-20.5 6-21-6-15.5-15.5T111 281t7-25q1-4 .5-13.5T115 226q-7-14-25-9-4 4-8 10-7 11-12 24-6 16-6 29 0 31 19.5 55.5t50 31.5 58.5-7 41.5-42.5 6-58.5-32.5-49q12-5 25-7 8-2 24-2t24 2q13 2 25 7-25 19-32.5 49t6 58.5T320 360t58.5 7 50-31.5T448 280q0-13-6-29-5-13-12-24z" /></symbol><symbol viewBox="0 0 512 512" id="smn"><path d="M397 177q-1-2-2.5-6t-4.5-6-13-2.5-12 13.5q-2 8-1 26v9q-1 8-10 11-5 2-17 3h-1q-4 0-17-6-8-4-27-16-23-13-34-19-21-11-88-65-24-19-29-22l-8-6q-10-7-14.5-8.5T109 87q29 65 46 124 14 48 21 91 4 30 5 55l-1 18-46 1q-12 0-14.5 4t2.5 13q1 4 22 9 24 6 51 7 36 2 66-5 37-8 64-29 61-60 74-122 7-33-1-72zM211 363q-2-52-10-99-10-56-26-90l26 24q30 26 45 31l18 7q31 11 46 17 24 12 28 23l-5 7q-21 33-40 50-34 29-82 30z" /></symbol><symbol viewBox="0 0 512 512" id="thm"><path d="M117 263q11 0 19 8 5 5 8 11 1 2 2 2l1-1q4-6 16-6 14 0 27 9 4 3 11 12 3 4 3.5 4t-.5-4-3-8l-1-1q-4-9-13-16-5-3-12.5-5t-13.5-8q-13-13-10-22 1-3 6-5-3-2-6-2-6 1-11.5-1.5t-10-10.5-5.5-16v-9q1-14-3-21-10-14-23-25-5-3-11-6 2 4 5 7t5 9q5 9 4 19 0 5-4.5 15T92 208.5t11 17.5q4 5 5 7t1.5 5-1.5 4.5-14-6.5l-7-7-8-7q-5-3-11-4 1 2 2 3 12 10 15 19 1 3 .5 9.5t1.5 9 7.5 8 7.5 5.5v-1q5-9 15-8zm50-128q5 7 11 19.5t7.5 19.5 2 16.5-.5 13-3 7.5v-5q-2-7-5-13.5T165 178l-3-3q-4-4-8-4l6 8q11 15 11 35 0 6-5 15l-1 3q-1 3 0 8.5t4 8.5q5 7 18 10t27 18q17 17 22 26 2 4 4 9l1-2q1-4 0-8-8-27-21-44-15-20-17-37-1-11 6-21.5t6.5-16T213 172l3 4q3 4 3 11 0 3-2 9-4 13-2.5 20t12.5 21l5 6q2 3 3 8l1 4q1-3 1-5t1.5-8 3-9.5 6-7.5 6-4.5 3.5.5l1 1q1-9 1-18-2-13-21-31-10-9-16.5-23.5T215 117q-1-22 21-44l8-9-7 3q-8 6-17 13-11 11-23 29-4 7-5.5 14t-.5 11l6 14q1 3 1 6-5-9-9-14-7-8-25-17-10-6-16-7l7 6q7 7 12 13zm96 121q0 4-2.5 7.5t-6 3.5-5.5-6q-1 0-3 4.5t-2 10.5q0 9 7 18l9 13 1-2v-3l-2-3q-2-3-2-7-1-7 4-14 2-2 4-3.5t4-.5 1 5l-2 4q3-1 6-3 7-7 8-16.5t-4-14.5q-8-8-7-14 1-10 7-19l3-4q5-7 5-9-5 4-9 9-7 8-13 17-3 4-5.5 10t-2.5 7l1 1q5 4 6 9zm45-38l7-7q10-9 13-13 7-8 9-15 1-4 1-12v-5q1 3 2 5 2 7 1 13-2 12-10 23-4 6-11 13t-10 8l-6 4 2 2q2 3 2 5-1 10-7 15-9 6-10.5 8.5T289 268q2-2 4.5-3t4 .5 1.5 3.5-1 4l-9 11q-4 6-5.5 12t-.5 13l2-5q2-6 5-9 9-14 20-19 7-5 17-7l1-6q2-7 5.5-11.5t9-7.5 10.5-4h2q7 0 9-1 7-2 13-10 5-5 7-11l1-5-3 3q-3 4-5.5 5.5T363 224h-3q-4 1-7 4l-5 3q0-2 1-4 5-9 13-13 11-5 16.5-11t5.5-18l1-8q3-12 14-22 10-9 23-13h-8q-9 1-18 5-12 5-21 15l-1 1q-7 8-13 6.5t-6-12.5v-18q0-5-4-13t-9-15q-7-10-15-18-7-7-16-11l4 6q8 7 10 13 5 12 5 25 0 16-8 28-4 5-12.5 13t-8.5 11q-1 7 1.5 12.5T304 201v1q-2 8-5 13l-11 18 8-5 12-10zm121 9q-4 3-7 8l-3 4q-3 4-5.5 5t-6.5 1l-1 1h-9q3-4 6-9 3-7 1.5-22.5T397 190q-2-3-6-6l2 5q1 2 1.5 9t-.5 15-8 16l-4 7q-6 10-21.5 17T335 269q-3 4-7 11l-3 6q4-2 6.5-4.5t8.5-5.5 11-4.5 12-1 12 2 10 5.5q2-5 6-10 6-8 13-9h3q11-1 15.5-5.5T430 241l2-6q3-7 12-14-9 0-16 6h1zm-49 116q-6 0-10 6-2 3-5 10l-2 7q-2 3-5 4.5t-5-.5q-5-3-2-13 2-4 11-14l4-4q13-16 13-30 0-9-6-15t-15-6q-15 0-23 11-1 1-1.5 1t-1.5-1q-2-3-5-6t-5.5-3.5-4.5.5l2 2q2 3 1 5v1q-1 5-17.5 12.5T254 318h-1q-32 0-48.5-7.5T187 298v-1q-1-2 1-5l1-2q-1-1-4-.5t-6 3.5-5 6q0 1-1 1t-1-1q-8-11-24-11-9 0-14.5 6t-5.5 15q0 14 13 30l4 5q9 9 10 13 4 10-1 13-3 2-5.5.5T144 366l-3-6q-2-8-5-11-3-6-9-6-11 0-14 10-2 5 0 9.5t4 4.5v-3q1-3 3-5.5t6.5-2.5 6.5 7q3 9 7 14 7 7 15 7 4 0 7-1l2-2q0 7 2 13 4 9 12 15 3 2 9 5l8 5q6 4 11 10v4q0 2 4.5 5.5T224 444q12 4 29.5 4t28.5-4q9-2 14-5.5t5-5.5v-4q5-6 11-10l8-5q6-3 9-5 8-6 11-15 3-6 3-13l2 2q3 1 7 1 8 0 15-7 4-4 7-14 2-7 6.5-7t7 3 2.5 8q2 0 4-4.5t0-9.5q-4-10-14-10zm-205 17q-2 4-6 5v-5q-1-6-7-14l-3-2q-9-12-11-18t.5-11.5 6.5-7.5q7-3 16 4.5t9 16.5q0 6-3.5 6t-4.5-1.5-1-3.5q-3 0-2.5 6.5t5.5 8.5q3 1 6 0v5q-1 5-5 11zm163 5q-4-1-6-5-7-9-5-16 3 1 5 0 6-2 6.5-8.5T336 329q0 2-1 3.5t-4.5 1.5-3.5-6q0-9 9-16.5t16-4.5q4 2 6 7.5t.5 11.5-10.5 18l-3 2q-6 8-7 14v5z" /></symbol><symbol viewBox="0 0 512 512" id="war"><path d="M448 256q-1-7-1-13-2-16-6-33-6-22-16-41-13-25-38-46.5T351 104q-8 3-13 7.5t-7 15.5l-2 11q-2 11-5 17-3 8-12 18t-23 15q-10 3-23 4h-10q-10 1-22-1-22-4-33-17-10-11-13-19-3-6-5-17l-2-11q-2-11-7-15.5t-13-6.5q-11-4-36 17.5T87 169q-10 19-16 41-4 17-6 33l-1 13q0 12 3 29 6 32 19.5 57.5t38.5 47 37 18.5q7-3 12-7.5t7-15.5l3-11q2-11 4-17 4-8 13-19 11-13 34-17 12-2 21-1 11-1 22 1 23 4 33 17 9 11 13 19 2 6 4 17l3 11q2 11 7 15.5t13 6.5q11 4 36-17.5t38-46.5q14-27 20-60 3-16 3-27zm-59 65q-11 21-24 33l-4-10q-4-12-11-22-10-15-23-23-16-10-35-15-13-4-26-4h-10q-9-1-23 1-25 4-47 18-14 9-23 23-7 10-12 22l-3 10-9-9q-9-11-16-24t-10-30q-3-12-4-25v-10q0-10 1-22 3-25 13-43 7-13 16-24l8-9 4 10q4 12 11 22 10 15 23 23 23 14 49 18 13 2 22 1 10 1 23-1 26-4 48-18 18-12 30-35 6-11 8-20l8 9q9 11 16 24 10 18 13 42 1 13 1 23 1 37-14 65z" /></symbol><symbol viewBox="0 0 512 512" id="whm"><path d="M237 187q14 0 24-10t10-23.5-10-23.5-23.5-10-23.5 10-10 23.5 10 23.5 23 10zm30-123q-6-1-11.5 1t-6.5 5.5 1 7.5 6 6l3 2q47 21 47 69 0 27-18.5 49T242 226q-20 0-36-7-9-3-21-12l-2-2q-9-6-14-1-3 4-1 12t5 12q16 19 53 34h1q13 5 13 13v136q0 13 5.5 25t10.5 12 10-12 5-25V277q0-5 4-12t9-9q17-8 34-29 27-32 27-74 0-34-23-59t-55-30z" /></symbol></defs></svg>